<?xml version="1.0" encoding="utf-8"?>
<!-- Generator: Adobe Illustrator 21.0.2, SVG Export Plug-In . SVG Version: 6.00 Build 0)  -->
<svg version="1.1" id="Layer_1" xmlns="http://www.w3.org/2000/svg" xmlns:xlink="http://www.w3.org/1999/xlink" x="0px" y="0px"
	 viewBox="0 0 169.3 98.1" style="enable-background:new 0 0 169.3 98.1;" xml:space="preserve">
<style type="text/css">
	.st0{fill:#FFFFFF;}
</style>
<title>SEL_Logo-Stacked_White</title>
<path class="st0" d="M17,9.4c-4.2,0-7.6,3.4-7.6,7.6v64.2c0,4.2,3.4,7.6,7.6,7.6h135.2c4.2,0,7.6-3.4,7.6-7.6l0,0V17
	c0-4.2-3.4-7.5-7.6-7.5H17z M152.2,98.1H17c-9.4,0-17-7.6-17-17V17C0,7.6,7.6,0,17,0h135.2c9.4,0,17,7.6,17,17v64.2
	C169.2,90.5,161.6,98.1,152.2,98.1L152.2,98.1L152.2,98.1z"/>
<path class="st0" d="M145.5,66.7h-21V24.1l0,0c0-1.4-1.1-2.5-2.5-2.5h-4.7c-1.4,0-2.6,1.1-2.6,2.5c0,0,0,0,0,0V74
	c0,1.4,1.1,2.5,2.5,2.5c0,0,0,0,0,0h28.3c1.4,0,2.5-1.1,2.5-2.5v-4.7C148.1,67.8,146.9,66.7,145.5,66.7
	C145.5,66.7,145.5,66.7,145.5,66.7z"/>
<path class="st0" d="M105.7,24.1c0-1.4-1.1-2.5-2.5-2.5c0,0,0,0,0,0H74.8c-1.4,0-2.5,1.1-2.6,2.5l0,0V74l0,0c0,1.4,1.1,2.5,2.6,2.5
	h28.3c1.4,0,2.5-1.1,2.5-2.5l0,0v-4.7l0,0c0-1.4-1.1-2.5-2.5-2.6h-21V54h11.5c1.4,0,2.5-1.2,2.5-2.5l0,0v-4.7l0,0
	c0-1.4-1.1-2.5-2.5-2.5H82.1V31.4h21c1.4,0,2.6-1.1,2.6-2.5c0,0,0,0,0-0.1l0,0V24.1L105.7,24.1z"/>
<path class="st0" d="M63.1,58.6c-0.1-1.2-0.4-2.4-0.9-3.5c-1.7-4-5-7.1-9-8.7c-2.5-0.9-5.1-1.6-7.7-2c-1.6-0.3-3.2-0.6-4.8-1
	c-1.3-0.3-2.6-0.7-3.9-1.3c-1.6-0.8-3.1-1.7-3.8-3.4c-0.4-1.2-0.3-2.5,0.4-3.6c1-1.4,2.4-2.5,4.1-3.2c3.5-1.6,7.6-1.6,11.1,0.1
	c0.5,0.2,0.9,0.5,1.3,0.8c0.9,0.7,1.8,1.5,2.5,2.4c0.5,0.7,1.2,1.3,1.9,1.8c0.9,0.5,1.9,0.7,2.9,0.6c1.7,0,4-0.3,5-1.8
	c0.3-0.4,0.4-0.9,0.5-1.3c0-0.6-0.1-1.3-0.3-1.9c-0.3-1-0.8-2-1.4-2.9c-0.9-1.2-1.9-2.4-3.1-3.4c-0.3-0.2-0.6-0.5-0.9-0.7
	c-4.9-3.5-10.9-5.2-16.9-4.6c-3.1,0.4-6.1,1.3-8.8,2.8c-2.2,1.3-4.2,3-5.7,5.1c-1.9,2.6-2.9,5.8-2.8,9c0.1,3.2,1.3,6.3,3.4,8.7
	c1,1.2,2.2,2.2,3.6,3.1c4.1,2.3,11,3.8,16.6,5.2c2,0.5,3.9,0.9,5.5,2.4c0.5,0.5,0.9,1.2,1.1,1.9c1,3-1.4,5.5-3.8,6.8
	c-1.2,0.6-2.5,1-3.9,1.3c-1.7,0.3-3.4,0.3-5.1-0.1c-1.3-0.2-2.6-0.6-3.8-1.2c-1.2-0.8-2.2-1.8-3-3.1c-0.3-0.4-0.6-0.8-0.9-1.2
	c-1-0.8-2.2-1.1-3.4-1c-0.7,0-1.5,0.1-2.2,0.2c-0.7,0.1-1.3,0.3-1.9,0.6c-0.6,0.3-1.1,0.8-1.4,1.4c-0.2,0.6-0.3,1.2-0.3,1.8
	c0,0.2,0,0.3,0,0.5c0.1,0.9,0.4,1.8,0.9,2.6c1,1.8,2.4,3.4,4,4.7c0.5,0.4,1,0.8,1.5,1.1c0.9,0.6,1.8,1.1,2.7,1.6
	c3.2,1.4,6.7,2.2,10.2,2.3c2,0,4-0.3,6-0.8c3.5-0.8,6.7-2.5,9.3-4.9c0.7-0.7,1.4-1.5,2-2.3C62.3,66.2,63.4,62.4,63.1,58.6z"/>
</svg>