<?xml version="1.0" encoding="UTF-8" standalone="no"?>
<!-- Created with Inkscape (http://www.inkscape.org/) -->

<svg
   width="100mm"
   height="100mm"
   viewBox="0 0 100 100"
   version="1.1"
   id="svg5"
   inkscape:version="1.2.2 (732a01da63, 2022-12-09, custom)"
   sodipodi:docname="logo-spiral"
   xmlns:inkscape="http://www.inkscape.org/namespaces/inkscape"
   xmlns:sodipodi="http://sodipodi.sourceforge.net/DTD/sodipodi-0.dtd"
   xmlns="http://www.w3.org/2000/svg"
   xmlns:svg="http://www.w3.org/2000/svg">
  <sodipodi:namedview
     id="namedview7"
     pagecolor="#ffffff"
     bordercolor="#666666"
     borderopacity="1.0"
     inkscape:showpageshadow="2"
     inkscape:pageopacity="0.0"
     inkscape:pagecheckerboard="0"
     inkscape:deskcolor="#d1d1d1"
     inkscape:document-units="mm"
     showgrid="false"
     inkscape:zoom="0.92484115"
     inkscape:cx="164.35255"
     inkscape:cy="204.90005"
     inkscape:window-width="1366"
     inkscape:window-height="704"
     inkscape:window-x="0"
     inkscape:window-y="0"
     inkscape:window-maximized="1"
     inkscape:current-layer="layer1" />
  <defs
     id="defs2" />
  <g
     inkscape:label="Layer 1"
     inkscape:groupmode="layer"
     id="layer1">
    <circle
       id="path110"
       style="fill:#000000;stroke:#000000;stroke-width:0.264583"
       cx="50.897457"
       cy="47.865986"
       r="0.029576514" />
    <path
       style="fill:#888888;fill-opacity:1;fill-rule:nonzero;stroke:none;stroke-width:0.264583"
       id="path118"
       d="m 7.1102921,27.359524 c 0.5400503,-1.585536 1.6188843,-2.933518 2.6051856,-4.263514 1.5668043,-1.948184 3.2736713,-3.779269 5.0013593,-5.584511 2.012628,-2.08343 4.274586,-3.900443 6.479843,-5.771371 2.401408,-2.0873577 5.019083,-3.8877047 7.766316,-5.4835597 -0.589537,0.3608411 -1.250469,0.6250422 -1.76861,1.0825234 -0.321208,0.2836037 0.772115,-0.3720679 1.162936,-0.5477563 1.330386,-0.5980604 2.700671,-1.046862 4.096827,-1.4608982 2.05513,-0.6421847 4.18847,-0.8263884 6.328957,-0.846447 1.930578,0.011263 3.847235,0.2635467 5.769123,0.4128857 1.062181,0.082536 2.126885,0.137273 3.190444,0.1975435 3.081147,0.1480301 6.16603,0.1784223 9.249958,0.2184072 2.345978,0.030814 4.693703,-0.021505 7.036588,0.1185611 2.615097,0.1675341 4.671346,1.5245254 6.724999,3.0249214 2.143107,1.6570349 4.27137,3.3574019 6.208866,5.2558829 0.462021,0.452717 0.903375,0.926058 1.355061,1.389086 2.404475,2.588553 4.414546,5.49285 6.345031,8.440541 1.291037,1.84584 2.324068,3.844875 3.263678,5.886599 0.68725,1.59984 1.4136,3.187554 1.940859,4.850236 0.342307,1.079444 0.360098,1.284086 0.598961,2.384168 0.464248,2.655686 0.521988,5.362204 0.560747,8.051474 0.0059,0.535498 0.01392,1.070981 0.01775,1.6065 0.0039,0.546066 -0.015,1.092539 0.0055,1.638231 0.101565,2.697954 0.568586,5.373047 1.018069,8.029109 0.381328,2.531097 0.928743,5.11287 0.745857,7.690427 -0.09176,1.293302 -0.283538,1.868236 -0.583393,3.122652 -0.711425,2.810174 -2.018289,5.40131 -3.162032,8.04671 -0.78172,1.978009 -1.516468,3.974213 -2.273893,5.961602 -0.790498,2.083247 -1.689047,4.121107 -2.634795,6.137788 -0.648729,1.220412 -1.344446,2.449838 -2.300388,3.46238 -0.454419,0.481322 -0.773478,0.709432 -1.284287,1.119613 -0.24006,0.166802 -0.473533,0.343501 -0.720178,0.500399 -0.266504,0.169529 -1.088681,0.641059 -0.818091,0.478131 0.717388,-0.431953 1.471766,-0.80608 2.158529,-1.285232 0.312764,-0.218215 -0.68284,0.340199 -1.030066,0.497909 -0.954762,0.433646 -1.226629,0.512958 -2.228818,0.883875 -2.725303,0.981474 -5.553718,1.614694 -8.387889,2.185461 -2.810815,0.581498 -5.65984,0.912815 -8.516972,1.154834 -2.165813,0.137002 -4.329382,0.307256 -6.491306,0.495581 -1.848818,0.187992 -3.704397,0.272523 -5.562052,0.283467 -2.235057,0.01476 -4.44436,-0.284544 -6.633594,-0.706237 -2.483464,-0.516795 -4.885584,-1.322943 -7.212343,-2.322801 -1.876825,-0.77284 -3.581083,-1.859494 -5.228225,-3.031058 -1.789634,-1.309164 -3.431782,-2.794834 -5.06499,-4.289481 -1.623443,-1.483246 -2.899236,-3.261881 -4.149392,-5.054772 -1.298522,-1.925846 -2.610676,-3.847661 -3.724925,-5.887667 -0.76614,-1.413856 -1.386042,-2.923318 -1.673883,-4.512357 -0.06094,-0.336426 -0.09358,-0.677368 -0.14037,-1.016051 -0.205919,-2.333638 0.101501,-4.654915 0.582099,-6.933956 0.724549,-3.370461 1.966299,-6.591914 3.301389,-9.759527 1.313811,-2.916933 2.682994,-5.808249 4.026063,-8.711779 0.844231,-1.788464 1.687593,-3.587861 2.774993,-5.245327 0.649384,-0.989822 1.001049,-1.40003 1.7254,-2.325436 1.449166,-1.815383 3.167875,-3.310824 5.035762,-4.672569 0.643668,-0.432125 1.016304,-0.694385 1.675217,-1.090639 0.265743,-0.15981 1.073275,-0.621683 0.807316,-0.462232 -0.783686,0.46985 -1.588887,0.90424 -2.36061,1.393489 -0.227015,0.14392 0.480708,-0.240755 0.723672,-0.355719 0.246155,-0.116475 0.495681,-0.225687 0.743519,-0.338529 1.769552,-0.669531 3.549923,-1.312616 5.334648,-1.941018 1.693852,-0.632933 3.461496,-0.944258 5.247426,-1.161161 2.271895,-0.26335 4.554458,-0.388397 6.839532,-0.453879 2.533652,-0.125802 5.052441,0.151394 7.5272,0.677127 2.099029,0.471625 4.109183,1.254791 6.098405,2.060067 1.951643,0.731737 3.728585,1.800714 5.380545,3.058334 1.138002,0.830242 2.168149,1.782808 3.13441,2.803999 1.196721,1.320046 2.15151,2.824117 3.001428,4.383585 0.948807,1.489059 1.543847,3.12497 1.971189,4.82723 0.467444,2.207784 0.50801,4.473194 0.42782,6.719271 -0.09398,3.340999 -0.309433,6.634557 -0.754314,9.948346 -0.281553,1.660869 -0.694806,3.302762 -1.467286,4.808498 -0.351507,0.685162 -0.788903,1.355685 -1.194705,2.007553 -1.290815,1.956895 -2.859852,3.702438 -4.466786,5.400645 -1.312971,1.352434 -2.84454,2.44633 -4.416798,3.471511 -1.059532,0.614966 -3.855296,2.473849 0.950635,-0.513035 0.235199,-0.146174 -0.490837,0.256826 -0.740781,0.376047 -0.785066,0.374467 -0.842523,0.377462 -1.648203,0.683014 -1.752282,0.669134 -3.596764,0.936482 -5.453893,1.095184 -2.148734,0.14968 -4.282575,-0.17195 -6.369659,-0.653986 C 52.054932,78.619314 50.613855,77.9793 49.286644,77.129025 48.526343,76.64194 48.109507,76.29714 47.390859,75.745457 45.51758,74.22989 43.998745,72.358571 42.568926,70.434939 c -0.789689,-1.113872 -2.521646,-1.26992 -2.968125,-2.570458 -0.279318,-0.813612 -0.30317,-1.109311 -0.464016,-1.958282 -0.279521,-1.999636 -0.307173,-4.02454 -0.247581,-6.039477 0.04124,-1.707523 0.506677,-3.328217 1.093121,-4.916135 0.524997,-1.488657 1.607114,-2.629951 2.701861,-3.723677 1.106554,-1.14323 2.39186,-2.063338 3.676248,-2.988996 1.053362,-0.717793 3.725188,-2.265693 -1.294794,0.687258 -0.208761,0.122801 0.422701,-0.236572 0.633963,-0.355012 0.881142,-0.494001 0.400934,-0.234411 1.352661,-0.729742 1.283626,-0.668028 2.638878,-1.141214 4.057166,-1.413804 1.123963,-0.178448 2.266093,-0.207372 3.401875,-0.186645 1.241412,0.01439 2.335318,0.51362 3.352509,1.182121 0.895027,0.619369 1.11955,1.373503 1.279056,2.397525 0.214506,1.348846 -0.284141,2.585688 -0.846042,3.781478 -0.604777,1.252606 -1.463249,2.330735 -2.370328,3.371789 -0.788215,0.891431 -1.680676,1.651606 -2.71867,2.231945 5.211889,-3.001973 3.40179,-1.712968 2.04865,-1.456348 -0.424386,0.08048 -0.853758,0.102272 -1.284073,0.12106 -0.733947,0.03128 -1.464421,0.0067 -2.193722,-0.07664 -0.606329,-0.06422 -1.05148,-0.437382 -1.343503,-0.952 -0.229884,-0.529198 -0.192678,-1.115242 -0.254884,-1.676905 -0.08506,-0.674312 -0.128222,-1.346359 -0.06688,-2.023279 0.07668,-0.707618 0.502319,-1.250757 0.986319,-1.740697 3.086472,-2.553117 -0.622681,-0.0027 -1.644854,0.591868 0.366919,-0.189196 0.766776,-0.250097 1.173329,-0.271645 0.339492,-0.01797 0.680223,0.01707 1.018839,-0.01368 0.225113,-0.03344 0.190889,-0.05812 0.213577,0.186423 0.01783,0.299738 0.0096,0.600249 0.0076,0.900313 1.289702,2.446411 2.704246,-1.451826 -1.122384,1.43618 -0.968195,-0.06712 -0.08061,0.290548 0.808646,0.166076 1.675966,-0.712946 3.782719,-0.752899 3.826166,-2.511824 -0.0035,-0.292182 -0.005,-0.584436 -7.93e-4,-0.876615 0.0026,-0.319469 0.0076,-0.64021 -0.02553,-0.958398 -0.0559,-0.307056 -0.178551,-0.654907 -0.536763,-0.686548 -0.338026,0.02606 -0.672004,0.07176 -1.014989,0.0386 -0.441375,7.94e-4 -0.885701,0.01487 -1.305557,0.168481 -2.255499,1.276189 -3.536477,1.616647 -4.969558,3.336224 -0.460274,0.582203 -0.839626,1.212726 -0.885513,1.974908 -0.03026,0.693328 0.04213,1.378842 0.10736,2.068777 0.03751,0.623716 0.02085,1.268416 0.315352,1.838378 0.335598,0.569333 0.888976,1.120807 1.555978,1.248897 0.750525,0.07419 1.498668,0.152435 2.254472,0.101238 2.672035,-0.08653 2.905887,-0.460508 5.897366,-2.308717 0.986015,-0.639414 1.849708,-1.430486 2.615888,-2.321939 0.895014,-1.067676 1.709695,-2.196981 2.309834,-3.461327 0.549542,-1.269785 1.002662,-2.59162 0.797404,-3.996398 -0.157083,-1.13842 -0.46164,-1.989286 -1.443617,-2.671911 -1.056368,-0.692658 -2.20549,-1.276054 -3.491664,-1.337212 -1.146675,-0.05609 -2.30051,-0.05206 -3.439221,0.112353 -1.456902,0.262633 -2.858082,0.706837 -4.182578,1.378087 -0.674114,0.326255 -1.327563,0.679561 -1.977229,1.052428 -1.69731,0.974148 -3.445809,1.883976 -5.046789,3.017581 -1.283412,0.92501 -2.536868,1.888707 -3.63229,3.037771 -1.108411,1.136682 -2.164186,2.334715 -2.654144,3.878662 -0.557641,1.61613 -0.981599,3.273771 -0.989118,4.997005 -0.02569,2.032003 1.006353,3.065806 1.293352,5.07996 0.139393,0.739936 0.220969,1.328444 0.470739,2.041766 0.463481,1.323668 1.296281,2.489314 2.125837,3.601651 1.451276,1.946606 2.955107,3.867086 4.862076,5.396984 1.91634,1.523722 3.855455,2.761755 6.250262,3.398665 2.087642,0.531001 4.242073,0.85379 6.401676,0.770845 1.86037,-0.130712 3.717488,-0.337603 5.479954,-0.989483 0.720993,-0.25632 0.960597,-0.324797 1.658422,-0.639535 2.135709,-0.963255 4.110823,-2.254552 6.08987,-3.501538 1.549212,-1.040516 3.049441,-2.161252 4.329678,-3.529158 1.570173,-1.712725 3.088048,-3.480017 4.361603,-5.429351 0.513798,-0.814125 0.802331,-1.214286 1.210001,-2.070533 0.722386,-1.517264 1.064054,-3.159297 1.250492,-4.820886 0.324591,-3.348691 0.61777,-6.700634 0.898525,-10.053156 0.06042,-2.290643 0.0088,-4.59845 -0.377211,-6.86208 C 81.4824,42.189858 80.91707,40.492527 79.92003,39.000468 79.005149,37.454536 78.083129,35.89617 76.956414,34.493476 75.980316,33.435 74.888865,32.498914 73.702936,31.680397 c -1.725949,-1.20218 -3.501734,-2.342258 -5.474163,-3.104206 -2.019554,-0.808098 -4.05158,-1.628716 -6.187832,-2.075431 -2.499748,-0.513929 -5.045453,-0.866031 -7.604278,-0.723225 -2.237494,0.05953 -4.475774,0.107825 -6.705833,0.314679 -1.834401,0.213347 -3.64948,0.51553 -5.387731,1.170779 -1.763358,0.590994 -3.510574,1.229365 -5.265362,1.845278 -2.756924,1.21045 -5.354465,2.77159 -7.832204,4.476269 -1.818349,1.359865 -3.485385,2.894885 -4.865784,4.709056 -0.774317,1.024634 -0.976652,1.249339 -1.670329,2.343224 -1.078616,1.700914 -1.946561,3.521787 -2.845883,5.320335 -1.295907,2.838241 -2.454337,5.736134 -3.728496,8.58416 -1.423351,3.223892 -2.772284,6.504487 -3.556029,9.951582 -0.09563,0.433475 -0.203604,0.864412 -0.286889,1.300427 -0.363066,1.900751 -0.462387,3.861123 -0.330927,5.789406 0.04606,0.351192 0.07651,0.704787 0.138169,1.053579 0.288673,1.633088 0.943106,3.156738 1.729788,4.607171 1.22313,1.984663 2.526873,3.918789 3.766217,5.893432 1.224462,1.842056 2.605154,3.578214 4.195844,5.120563 1.619411,1.529988 3.318486,2.976677 5.096131,4.32026 1.642239,1.227124 3.323182,2.391095 5.262207,3.108738 2.379896,0.970248 4.829046,1.754766 7.338089,2.319932 2.175465,0.47543 4.319276,0.89806 6.56027,0.844468 1.855414,0.02979 3.715134,-0.04353 5.561047,-0.237961 2.203024,-0.224472 4.407924,-0.439152 6.617247,-0.591788 2.881816,-0.262236 5.758207,-0.574312 8.594813,-1.165656 2.807747,-0.558504 5.620176,-1.140071 8.33094,-2.077696 1.091647,-0.376561 2.219762,-0.747972 3.239236,-1.301528 1.358056,-0.737399 2.697377,-1.508908 4.038084,-2.277398 0.782947,-0.448784 0.854085,-0.530167 1.564986,-1.050431 0.507839,-0.443759 0.789276,-0.65954 1.237007,-1.178367 0.894826,-1.03692 1.523063,-2.280748 2.145022,-3.489047 0.944663,-2.056257 1.9231,-4.099517 2.733839,-6.213758 0.718201,-1.957514 1.386305,-3.933385 2.138733,-5.877869 1.161116,-2.629456 2.325957,-5.264031 3.040276,-8.059838 0.269227,-1.204561 0.492414,-1.951249 0.543605,-3.194293 0.04785,-1.162008 -0.126018,-2.217762 -0.295089,-3.363958 -0.119939,-0.813104 -0.561544,-3.507949 -0.683446,-4.257439 -0.299847,-2.084369 -0.608507,-4.16845 -0.733837,-6.27279 -0.07857,-1.319162 -0.0587,-2.155978 -0.05574,-3.460498 0.0013,-0.540047 0.0027,-1.080096 0.0041,-1.620144 -0.01947,-2.728138 0.04423,-5.4809 -0.488416,-8.171239 C 93.335312,33.9181 93.294124,33.622743 92.947358,32.573731 92.397963,30.911839 91.660453,29.318108 90.968414,27.713328 90.057625,25.631417 89.18921,23.497739 87.694737,21.751922 85.516867,18.954857 83.452715,16.065661 81.106933,13.403296 80.669754,12.924456 80.246185,12.432825 79.795396,11.966775 77.908673,10.016181 75.782807,8.3029079 73.670318,6.607863 71.647766,5.1123102 69.564011,3.5442667 66.972486,3.3174783 64.583164,3.1971124 62.19191,3.2904757 59.800638,3.2747467 56.700253,3.2830667 53.59841,3.2667867 50.5011,3.1138803 48.948864,3.0264653 47.401683,2.9172417 45.85377,2.7706814 45.84245,2.7696014 43.000501,2.4851176 42.953165,2.4814521 c -0.437661,-0.033891 -0.876681,-0.047014 -1.315022,-0.070521 -0.842367,-0.013248 -1.555459,-0.041479 -2.394447,0.00986 -1.328259,0.081271 -2.642513,0.3438724 -3.922705,0.6973493 -1.042127,0.3104341 -2.0906,0.6188668 -3.104488,1.0147903 -2.271935,0.8871911 -4.387676,2.115189 -6.476401,3.3638321 -2.716843,1.6203383 -5.299345,3.4512702 -7.697356,5.5187822 -2.245862,1.887613 -4.537203,3.738911 -6.577761,5.852519 -1.7255284,1.826473 -3.4529075,3.658713 -5.0086135,5.634463 -1.0650607,1.435446 -2.1370719,2.875222 -2.9364485,4.481398 l 3.5903691,-1.624396 z"
       sodipodi:nodetypes="sccccssccsccccscccsccsccsccccscsssscccccccccccsccccsccssssccccccccccccscccsscccsccscccccssccccccccscccccccccccccccccccccccccccccccccscccccscccccscccsccccccccccccccscccscccccccccccccsscsccccsscscccccccscccccscscsccccccs" />
  </g>
</svg>
